<svg xmlns="http://www.w3.org/2000/svg" viewBox="0 0 100 100">
  <circle cx="50" cy="50" r="50" fill="#1A3658"/>
  <path d="M27,64 Q27,29 50,27 Q73,29 73,64 Z" fill="#B0B0A8"/>
  <path d="M18,100 Q26,83 41,79 Q45,84 50,86 Q55,84 59,79 Q74,83 82,100 Z" fill="#1A3658"/>
  <rect x="44" y="79" width="12" height="16" rx="3" fill="#ECCA96"/>
  <ellipse cx="29" cy="62" rx="4.5" ry="5.5" fill="#ECCA96"/>
  <ellipse cx="71" cy="62" rx="4.5" ry="5.5" fill="#ECCA96"/>
  <ellipse cx="50" cy="61" rx="21" ry="23" fill="#ECCA96"/>
  <path d="M28,56 Q27,29 50,27 Q73,29 72,56 Z" fill="#E8E8E2"/>
  <path d="M37,49 Q41,47 45,49" stroke="#A0A090" stroke-width="2" fill="none" stroke-linecap="round"/>
  <path d="M55,49 Q59,47 63,49" stroke="#A0A090" stroke-width="2" fill="none" stroke-linecap="round"/>
  <ellipse cx="42" cy="55" rx="5" ry="3.5" fill="white"/>
  <ellipse cx="58" cy="55" rx="5" ry="3.5" fill="white"/>
  <circle cx="42" cy="55" r="2.5" fill="#2A1A08"/>
  <circle cx="58" cy="55" r="2.5" fill="#2A1A08"/>
  <circle cx="43.2" cy="53.8" r="0.85" fill="white"/>
  <circle cx="59.2" cy="53.8" r="0.85" fill="white"/>
  <path d="M48,61 Q50,67 52,61" stroke="#C07848" stroke-width="1.2" fill="none" stroke-linecap="round"/>
  <ellipse cx="46.5" cy="65" rx="1.8" ry="1.3" fill="#C07848" opacity="0.45"/>
  <ellipse cx="53.5" cy="65" rx="1.8" ry="1.3" fill="#C07848" opacity="0.45"/>
  <path d="M34,76 Q30,70 33,65" stroke="#C07848" stroke-width="0.7" fill="none" opacity="0.38"/><path d="M66,76 Q70,70 67,65" stroke="#C07848" stroke-width="0.7" fill="none" opacity="0.38"/>
  <path d="M43,72 Q50,78 57,72" stroke="#B06868" stroke-width="2.2" fill="none" stroke-linecap="round"/>
  <path d="M31,72 Q29,85 36,92 Q42,99 50,99 Q58,99 64,92 Q71,85 69,72 Q59,77 50,77 Q41,77 31,72 Z" fill="#B0B0A8"/><path d="M33,75 Q31,86 35,92" stroke="#E8E8E2" stroke-width="0.9" fill="none" opacity="0.4"/>
</svg>