<svg xmlns="http://www.w3.org/2000/svg" viewBox="0 0 100 100">
  <circle cx="50" cy="50" r="50" fill="#A04535"/>
  
  <ellipse cx="30" cy="62" rx="4" ry="5.5" fill="#D4956A"/>
  <ellipse cx="70" cy="62" rx="4" ry="5.5" fill="#D4956A"/>
  <ellipse cx="50" cy="62" rx="21" ry="23" fill="#D4956A"/>
  
  <path d="M40,51 Q43,49 46,51" stroke="#6B3D2E" stroke-width="1.8" fill="none" stroke-linecap="round"/>
  <path d="M54,51 Q57,49 60,51" stroke="#6B3D2E" stroke-width="1.8" fill="none" stroke-linecap="round"/>
  <circle cx="43" cy="56" r="2.8" fill="#1A0F0A"/>
  <circle cx="57" cy="56" r="2.8" fill="#1A0F0A"/>
  <circle cx="44.2" cy="54.8" r="0.9" fill="white"/>
  <circle cx="58.2" cy="54.8" r="0.9" fill="white"/>
  <ellipse cx="50" cy="63" rx="2" ry="1.5" fill="#B06840"/>
  <path d="M44,70 Q50,75 56,70" stroke="#C06060" stroke-width="2.2" fill="none" stroke-linecap="round"/>
  <path d="M35,56 Q35,61 41,61 Q47,61 47,56 Q47,51 41,51 Q35,51 35,56 Z" stroke="#555" stroke-width="1.5" fill="rgba(210,235,255,0.2)"/><path d="M53,56 Q53,61 59,61 Q65,61 65,56 Q65,51 59,51 Q53,51 53,56 Z" stroke="#555" stroke-width="1.5" fill="rgba(210,235,255,0.2)"/><line x1="47" y1="56" x2="53" y2="56" stroke="#555" stroke-width="1.5"/><line x1="35" y1="55" x2="31" y2="53" stroke="#555" stroke-width="1.5"/><line x1="65" y1="55" x2="69" y2="53" stroke="#555" stroke-width="1.5"/>
</svg>