<svg xmlns="http://www.w3.org/2000/svg" viewBox="0 0 100 100">
  <circle cx="50" cy="50" r="50" fill="#00897B"/>
  <path d="M26,64 Q24,28 50,26 Q76,28 74,64 Q80,80 72,94 Q60,102 50,102 Q40,102 28,94 Q20,80 26,64 Z" fill="#5A3020"/>
  <ellipse cx="30" cy="62" rx="4" ry="5.5" fill="#D4956A"/>
  <ellipse cx="70" cy="62" rx="4" ry="5.5" fill="#D4956A"/>
  <ellipse cx="50" cy="62" rx="21" ry="23" fill="#D4956A"/>
  <path d="M28,58 Q28,28 50,26 Q72,28 72,58 Z" fill="#5A3020"/>
  <path d="M40,51 Q43,49 46,51" stroke="#5A3020" stroke-width="1.8" fill="none" stroke-linecap="round"/>
  <path d="M54,51 Q57,49 60,51" stroke="#5A3020" stroke-width="1.8" fill="none" stroke-linecap="round"/>
  <circle cx="43" cy="56" r="2.8" fill="#1A0F0A"/>
  <circle cx="57" cy="56" r="2.8" fill="#1A0F0A"/>
  <circle cx="44.2" cy="54.8" r="0.9" fill="white"/>
  <circle cx="58.2" cy="54.8" r="0.9" fill="white"/>
  <ellipse cx="50" cy="63" rx="2" ry="1.5" fill="#B06840"/>
  <path d="M44,70 Q50,75 56,70" stroke="#C06060" stroke-width="2.2" fill="none" stroke-linecap="round"/>
  
</svg>