<svg xmlns="http://www.w3.org/2000/svg" viewBox="0 0 100 100">
  <circle cx="50" cy="50" r="50" fill="#2E7D52"/>
  <ellipse cx="50" cy="38" rx="27" ry="21" fill="#D4A830"/><ellipse cx="27" cy="72" rx="11" ry="22" fill="#D4A830"/><ellipse cx="73" cy="72" rx="11" ry="22" fill="#D4A830"/>
  <ellipse cx="30" cy="62" rx="4" ry="5.5" fill="#FDDBB4"/>
  <ellipse cx="70" cy="62" rx="4" ry="5.5" fill="#FDDBB4"/>
  <ellipse cx="50" cy="62" rx="21" ry="23" fill="#FDDBB4"/>
  
  <path d="M40,51 Q43,49 46,51" stroke="#8B5A2B" stroke-width="1.8" fill="none" stroke-linecap="round"/>
  <path d="M54,51 Q57,49 60,51" stroke="#8B5A2B" stroke-width="1.8" fill="none" stroke-linecap="round"/>
  <circle cx="43" cy="56" r="2.8" fill="#1A0F0A"/>
  <circle cx="57" cy="56" r="2.8" fill="#1A0F0A"/>
  <circle cx="44.2" cy="54.8" r="0.9" fill="white"/>
  <circle cx="58.2" cy="54.8" r="0.9" fill="white"/>
  <ellipse cx="50" cy="63" rx="2" ry="1.5" fill="#E8A070"/>
  <path d="M44,70 Q50,75 56,70" stroke="#C06060" stroke-width="2.2" fill="none" stroke-linecap="round"/>
  
</svg>