<svg xmlns="http://www.w3.org/2000/svg" viewBox="0 0 100 100">
  <circle cx="50" cy="50" r="50" fill="#D8C888"/>
  <ellipse cx="50" cy="41" rx="35" ry="8" fill="#181414"/>
  <path d="M18,100 Q26,83 41,79 Q45,84 50,86 Q55,84 59,79 Q74,83 82,100 Z" fill="#2E5888"/>
  <rect x="44" y="79" width="12" height="16" rx="3" fill="#3A1E10"/>
  <ellipse cx="29" cy="62" rx="4.5" ry="5.5" fill="#3A1E10"/>
  <ellipse cx="71" cy="62" rx="4.5" ry="5.5" fill="#3A1E10"/>
  <ellipse cx="50" cy="61" rx="21" ry="23" fill="#3A1E10"/>
  <path d="M31,41 Q31,15 50,15 Q69,15 69,41 Z" fill="#181414"/><ellipse cx="50" cy="41" rx="35" ry="8" fill="#181414"/><ellipse cx="50" cy="40" rx="30" ry="5.5" fill="#0E0A08" opacity="0.3"/>
  <path d="M37,49 Q41,47 45,49" stroke="#B0B0A8" stroke-width="2" fill="none" stroke-linecap="round"/>
  <path d="M55,49 Q59,47 63,49" stroke="#B0B0A8" stroke-width="2" fill="none" stroke-linecap="round"/>
  <ellipse cx="42" cy="55" rx="5" ry="3.5" fill="white"/>
  <ellipse cx="58" cy="55" rx="5" ry="3.5" fill="white"/>
  <circle cx="42" cy="55" r="2.5" fill="#2A1A08"/>
  <circle cx="58" cy="55" r="2.5" fill="#2A1A08"/>
  <circle cx="43.2" cy="53.8" r="0.85" fill="white"/>
  <circle cx="59.2" cy="53.8" r="0.85" fill="white"/>
  <path d="M48,61 Q50,67 52,61" stroke="#301208" stroke-width="1.2" fill="none" stroke-linecap="round"/>
  <ellipse cx="46.5" cy="65" rx="1.8" ry="1.3" fill="#301208" opacity="0.45"/>
  <ellipse cx="53.5" cy="65" rx="1.8" ry="1.3" fill="#301208" opacity="0.45"/>
  <path d="M34,76 Q30,70 33,65" stroke="#301208" stroke-width="0.7" fill="none" opacity="0.38"/><path d="M66,76 Q70,70 67,65" stroke="#301208" stroke-width="0.7" fill="none" opacity="0.38"/>
  <path d="M43,72 Q50,78 57,72" stroke="#7A3030" stroke-width="2.2" fill="none" stroke-linecap="round"/>
  
</svg>