<svg xmlns="http://www.w3.org/2000/svg" viewBox="0 0 100 100">
  <circle cx="50" cy="50" r="50" fill="#005A4A"/>
  <path d="M27,65 Q27,33 50,31 Q73,33 73,65 Z" fill="#E8E8E2"/><ellipse cx="53" cy="34" rx="23" ry="10" fill="#007A6A"/>
  <path d="M18,100 Q26,83 41,79 Q45,84 50,86 Q55,84 59,79 Q74,83 82,100 Z" fill="#C07040"/>
  <rect x="44" y="79" width="12" height="16" rx="3" fill="#ECCA96"/>
  <ellipse cx="29" cy="62" rx="4.5" ry="5.5" fill="#ECCA96"/>
  <ellipse cx="71" cy="62" rx="4.5" ry="5.5" fill="#ECCA96"/>
  <ellipse cx="50" cy="61" rx="21" ry="23" fill="#ECCA96"/>
  <path d="M28,57 Q27,33 50,31 Q73,33 72,57 Z" fill="#E8E8E2"/><ellipse cx="50" cy="29" rx="12" ry="8.5" fill="#E8E8E2"/><ellipse cx="50" cy="29" rx="7.5" ry="5" fill="#B0B0A8" opacity="0.35"/><ellipse cx="53" cy="32" rx="25" ry="9" fill="#007A6A"/><circle cx="66" cy="25" r="2.5" fill="#007A6A"/><ellipse cx="47" cy="30" rx="9" ry="4" fill="#007A6A" opacity="0.6" transform="rotate(-8 47 30)"/>
  <path d="M37,49 Q41,47 45,49" stroke="#888" stroke-width="2" fill="none" stroke-linecap="round"/>
  <path d="M55,49 Q59,47 63,49" stroke="#888" stroke-width="2" fill="none" stroke-linecap="round"/>
  <ellipse cx="42" cy="55" rx="5" ry="3.5" fill="white"/>
  <ellipse cx="58" cy="55" rx="5" ry="3.5" fill="white"/>
  <circle cx="42" cy="55" r="2.5" fill="#2A1A08"/>
  <circle cx="58" cy="55" r="2.5" fill="#2A1A08"/>
  <circle cx="43.2" cy="53.8" r="0.85" fill="white"/>
  <circle cx="59.2" cy="53.8" r="0.85" fill="white"/>
  <path d="M48,61 Q50,67 52,61" stroke="#C07848" stroke-width="1.2" fill="none" stroke-linecap="round"/>
  <ellipse cx="46.5" cy="65" rx="1.8" ry="1.3" fill="#C07848" opacity="0.45"/>
  <ellipse cx="53.5" cy="65" rx="1.8" ry="1.3" fill="#C07848" opacity="0.45"/>
  <path d="M34,76 Q30,70 33,65" stroke="#C07848" stroke-width="0.7" fill="none" opacity="0.38"/><path d="M66,76 Q70,70 67,65" stroke="#C07848" stroke-width="0.7" fill="none" opacity="0.38"/>
  <path d="M43,72 Q50,78 57,72" stroke="#B06868" stroke-width="2.2" fill="none" stroke-linecap="round"/>
  
</svg>