<svg xmlns="http://www.w3.org/2000/svg" viewBox="0 0 100 100">
  <circle cx="50" cy="50" r="50" fill="#C85020"/>
  <path d="M27,65 Q26,29 50,27 Q74,29 73,65 Z" fill="#E8E8E2"/>
  <path d="M18,100 Q26,83 41,79 Q45,84 50,86 Q55,84 59,79 Q74,83 82,100 Z" fill="#A83A18"/>
  <rect x="44" y="79" width="12" height="16" rx="3" fill="#F5D5B8"/>
  <ellipse cx="29" cy="62" rx="4.5" ry="5.5" fill="#F5D5B8"/>
  <ellipse cx="71" cy="62" rx="4.5" ry="5.5" fill="#F5D5B8"/>
  <ellipse cx="50" cy="61" rx="21" ry="23" fill="#F5D5B8"/>
  <path d="M28,57 Q26,29 50,27 Q74,29 72,57 Z" fill="#E8E8E2"/><circle cx="33" cy="36" r="6.5" fill="#E8E8E2"/><circle cx="42" cy="28" r="7.5" fill="#E8E8E2"/><circle cx="51" cy="26" r="7.5" fill="#E8E8E2"/><circle cx="60" cy="28" r="7.5" fill="#E8E8E2"/><circle cx="68" cy="37" r="6" fill="#E8E8E2"/><circle cx="29" cy="48" r="5.5" fill="#E8E8E2"/><circle cx="71" cy="48" r="5.5" fill="#E8E8E2"/>
  <path d="M37,49 Q41,47 45,49" stroke="#888" stroke-width="2" fill="none" stroke-linecap="round"/>
  <path d="M55,49 Q59,47 63,49" stroke="#888" stroke-width="2" fill="none" stroke-linecap="round"/>
  <ellipse cx="42" cy="55" rx="5" ry="3.5" fill="white"/>
  <ellipse cx="58" cy="55" rx="5" ry="3.5" fill="white"/>
  <circle cx="42" cy="55" r="2.5" fill="#2A1A08"/>
  <circle cx="58" cy="55" r="2.5" fill="#2A1A08"/>
  <circle cx="43.2" cy="53.8" r="0.85" fill="white"/>
  <circle cx="59.2" cy="53.8" r="0.85" fill="white"/>
  <path d="M48,61 Q50,67 52,61" stroke="#D08858" stroke-width="1.2" fill="none" stroke-linecap="round"/>
  <ellipse cx="46.5" cy="65" rx="1.8" ry="1.3" fill="#D08858" opacity="0.45"/>
  <ellipse cx="53.5" cy="65" rx="1.8" ry="1.3" fill="#D08858" opacity="0.45"/>
  <path d="M34,76 Q30,70 33,65" stroke="#D08858" stroke-width="0.7" fill="none" opacity="0.38"/><path d="M66,76 Q70,70 67,65" stroke="#D08858" stroke-width="0.7" fill="none" opacity="0.38"/>
  <path d="M43,72 Q50,78 57,72" stroke="#C07878" stroke-width="2.2" fill="none" stroke-linecap="round"/>
  <circle cx="42" cy="56" r="7.5" stroke="#5A4A3A" stroke-width="1.8" fill="rgba(210,235,255,0.15)"/><circle cx="58" cy="56" r="7.5" stroke="#5A4A3A" stroke-width="1.8" fill="rgba(210,235,255,0.15)"/><line x1="49.5" y1="56" x2="50.5" y2="56" stroke="#5A4A3A" stroke-width="1.8"/><line x1="34.5" y1="53" x2="30" y2="57" stroke="#5A4A3A" stroke-width="1.5"/><line x1="65.5" y1="53" x2="70" y2="57" stroke="#5A4A3A" stroke-width="1.5"/>
</svg>