<svg xmlns="http://www.w3.org/2000/svg" viewBox="0 0 100 100">
  <circle cx="50" cy="50" r="50" fill="#7A2440"/>
  <path d="M25,64 Q24,26 50,24 Q76,26 75,64 Q80,86 72,100 Q61,108 50,108 Q39,108 28,100 Q20,86 25,64 Z" fill="#D0D0C8"/><path d="M25,70 Q21,88 27,102" stroke="#F2F2EE" stroke-width="2.5" fill="none" opacity="0.45"/><path d="M75,70 Q79,88 73,102" stroke="#F2F2EE" stroke-width="2.5" fill="none" opacity="0.45"/>
  <path d="M18,100 Q26,83 41,79 Q45,84 50,86 Q55,84 59,79 Q74,83 82,100 Z" fill="#7A2440"/>
  <rect x="44" y="79" width="12" height="16" rx="3" fill="#F5D5B8"/>
  <ellipse cx="29" cy="62" rx="4.5" ry="5.5" fill="#F5D5B8"/>
  <ellipse cx="71" cy="62" rx="4.5" ry="5.5" fill="#F5D5B8"/>
  <ellipse cx="50" cy="61" rx="21" ry="23" fill="#F5D5B8"/>
  <path d="M27,58 Q25,26 50,24 Q75,26 73,58 Z" fill="#D0D0C8"/>
  <path d="M37,49 Q41,47 45,49" stroke="#888" stroke-width="2" fill="none" stroke-linecap="round"/>
  <path d="M55,49 Q59,47 63,49" stroke="#888" stroke-width="2" fill="none" stroke-linecap="round"/>
  <ellipse cx="42" cy="55" rx="5" ry="3.5" fill="white"/>
  <ellipse cx="58" cy="55" rx="5" ry="3.5" fill="white"/>
  <circle cx="42" cy="55" r="2.5" fill="#2A1A08"/>
  <circle cx="58" cy="55" r="2.5" fill="#2A1A08"/>
  <circle cx="43.2" cy="53.8" r="0.85" fill="white"/>
  <circle cx="59.2" cy="53.8" r="0.85" fill="white"/>
  <path d="M48,61 Q50,67 52,61" stroke="#D08858" stroke-width="1.2" fill="none" stroke-linecap="round"/>
  <ellipse cx="46.5" cy="65" rx="1.8" ry="1.3" fill="#D08858" opacity="0.45"/>
  <ellipse cx="53.5" cy="65" rx="1.8" ry="1.3" fill="#D08858" opacity="0.45"/>
  <path d="M34,76 Q30,70 33,65" stroke="#D08858" stroke-width="0.7" fill="none" opacity="0.38"/><path d="M66,76 Q70,70 67,65" stroke="#D08858" stroke-width="0.7" fill="none" opacity="0.38"/>
  <path d="M43,72 Q50,78 57,72" stroke="#C07878" stroke-width="2.2" fill="none" stroke-linecap="round"/>
  
</svg>